<svg width="45" height="45" viewBox="0 0 45 45" fill="none" xmlns="http://www.w3.org/2000/svg">
<path d="M45 22.5C45 10.0736 34.9264 0 22.5 0C10.0736 0 0 10.0736 0 22.5C0 34.9264 10.0736 45 22.5 45C34.9264 45 45 34.9264 45 22.5Z" fill="url(#paint0_linear_54_130)"/>
<path d="M12.1794 23.4604L27.5165 8.22885C27.803 7.9443 28.2642 8.29057 28.0707 8.64506L22.3624 19.1075C22.2349 19.3407 22.4039 19.6254 22.6697 19.6254H32.5346C32.8524 19.6254 33.0058 20.0147 32.7735 20.2316L15.4865 36.3654C15.1766 36.6547 14.7152 36.2471 14.964 35.9039L23.1473 24.6148C23.3151 24.3833 23.1498 24.0591 22.8638 24.0591H12.4262C12.1136 24.0591 11.9576 23.6807 12.1794 23.4604Z" fill="white"/>
<defs>
<linearGradient id="paint0_linear_54_130" x1="22.5" y1="0" x2="22.5" y2="45" gradientUnits="userSpaceOnUse">
<stop stop-color="#7BCBD4"/>
<stop offset="1" stop-color="#29C6B7"/>
</linearGradient>
</defs>
</svg>
