<svg width="51" height="50" viewBox="0 0 51 50" fill="none" xmlns="http://www.w3.org/2000/svg">
<path d="M43.2083 5.20833H7.79166L10.9167 40.625L25.5 44.7917L40.0833 40.625L43.2083 5.20833Z" fill="#0277BD"/>
<path d="M25.5 8.33334V41.5625L37.1667 38.2292L39.7708 8.33334H25.5Z" fill="#039BE5"/>
<path d="M34.9792 13.5417H25.5V17.7083H30.6042L30.2917 21.875H25.5V26.0417H30.0833L29.7708 30.7292L25.5 32.1875V36.5625L33.7292 33.8542L34.4583 21.875L34.9792 13.5417Z" fill="white"/>
<path d="M25.5 13.5417V17.7083H16.2292L15.9167 13.5417H25.5ZM20.7083 21.875L20.9167 26.0417H25.5V21.875H20.7083ZM21.125 28.125H16.9583L17.2708 33.8542L25.5 36.5625V32.1875L21.2292 30.7292L21.125 28.125Z" fill="#EEEEEE"/>
</svg>
