<svg width="36" height="35" viewBox="0 0 36 35" fill="none" xmlns="http://www.w3.org/2000/svg">
<path d="M12.9537 32.7852C13.4514 32.571 13.8 32.0761 13.8 31.5V27.72C13.8 27.5821 13.8112 27.4386 13.8287 27.293C13.8189 27.2958 13.8098 27.2979 13.8 27.3C13.8 27.3 11.7 27.3 11.28 27.3C10.23 27.3 9.32002 26.88 8.90002 26.04C8.41002 25.13 8.20002 23.59 6.94002 22.75C6.73002 22.61 6.87002 22.4 7.29002 22.4C7.71002 22.47 8.62002 23.03 9.18002 23.8C9.81002 24.57 10.44 25.2 11.56 25.2C13.3009 25.2 14.234 25.1125 14.7954 24.8115C15.4492 23.8392 16.3543 23.1 17.3 23.1V23.0825C13.3324 22.9551 10.7977 21.6363 9.61752 19.6C7.05202 19.6294 4.81832 19.8835 3.54362 20.0949C3.50302 19.866 3.46802 19.6357 3.43792 19.404C4.69582 19.1968 6.82802 18.9511 9.27942 18.9042C9.20102 18.711 9.13312 18.5129 9.07572 18.3099C6.61802 18.1853 4.49702 18.2826 3.34482 18.3778C3.33082 18.1454 3.31192 17.9137 3.30912 17.6785C4.46342 17.584 6.52702 17.4895 8.92172 17.6008C8.86642 17.2508 8.83072 16.8931 8.83072 16.5207C8.83072 15.3307 9.25072 14.0707 10.0207 13.0207C9.67072 11.8307 9.18072 9.3107 10.1607 8.4007C12.0507 8.4007 13.3807 9.3107 14.0107 9.8707C15.2 9.38 16.53 9.1 18 9.1C19.47 9.1 20.8 9.38 21.92 9.87C22.55 9.31 23.88 8.4 25.77 8.4C26.82 9.38 26.26 11.9 25.91 13.02C26.68 14.07 27.1 15.26 27.03 16.52C27.03 16.8588 26.9985 17.1857 26.953 17.5063C29.4023 17.3859 31.5219 17.4825 32.6958 17.5777C32.6944 17.8136 32.6727 18.0439 32.6601 18.277C31.4904 18.1804 29.3176 18.081 26.8088 18.2147C26.7465 18.4499 26.6709 18.6788 26.5813 18.9007C29.0635 18.9329 31.2468 19.173 32.5649 19.383C32.5348 19.6154 32.4998 19.8457 32.4592 20.0739C31.1208 19.8597 28.8395 19.6091 26.2439 19.5965C25.0784 21.6111 22.5899 22.925 18.7 23.0783V23.1C20.52 23.1 22.2 25.83 22.2 27.72V31.5C22.2 32.0761 22.5486 32.571 23.0463 32.7852C29.459 30.6628 34.1 24.6148 34.1 17.5C34.1 8.6226 26.8781 1.4 18 1.4C9.12192 1.4 1.90002 8.6226 1.90002 17.5C1.90002 24.6148 6.54102 30.6628 12.9537 32.7852Z" fill="white"/>
</svg>
