<svg width="51" height="50" viewBox="0 0 51 50" fill="none" xmlns="http://www.w3.org/2000/svg">
<path d="M43.2083 5.20833H7.79167L10.9167 40.625L25.5 44.7917L40.0833 40.625L43.2083 5.20833Z" fill="#E65100"/>
<path d="M25.5 8.33334V41.5625L37.1667 38.2292L39.7708 8.33334H25.5Z" fill="#FF6D00"/>
<path d="M25.5 26.0417V21.875H34.4583L33.7292 33.8542L25.5 36.5625V32.1875L29.7708 30.7292L30.0833 26.0417H25.5ZM34.7708 17.7083L35.0833 13.5417H25.5V17.7083H34.7708Z" fill="white"/>
<path d="M25.5 32.1875V36.5625L17.2708 33.8542L16.8542 28.125H21.0208L21.2292 30.7292L25.5 32.1875ZM20.3958 17.7083H25.5V13.5417H16.0208L16.75 26.0417H25.5V21.875H20.7083L20.3958 17.7083Z" fill="#EEEEEE"/>
</svg>
