<svg width="50" height="50" viewBox="0 0 50 50" fill="none" xmlns="http://www.w3.org/2000/svg">
<path d="M25 35.4167C11.5625 35.4167 1.04167 30.8333 1.04167 25C1.04167 19.1667 11.5625 14.5833 25 14.5833C38.4375 14.5833 48.9583 19.1667 48.9583 25C48.9583 30.8333 38.4375 35.4167 25 35.4167ZM25 16.6667C11.875 16.6667 3.12501 20.9375 3.12501 25C3.12501 29.0625 11.875 33.3333 25 33.3333C38.125 33.3333 46.875 29.0625 46.875 25C46.875 20.9375 38.125 16.6667 25 16.6667Z" fill="#80DEEA"/>
<path d="M15.7292 46.4583C14.6875 46.4583 13.8542 46.25 13.0208 45.7292C7.91666 42.8125 9.27083 31.4583 15.9375 19.7917C19.0625 14.375 22.9167 9.79166 26.6667 6.875C30.7292 3.75 34.375 2.8125 36.875 4.27083C39.4792 5.72916 40.4167 9.375 39.7917 14.4792C39.1667 19.2708 37.0833 24.8958 33.9583 30.3125C30.8333 35.7292 26.9792 40.3125 23.2292 43.2292C20.5208 45.3125 17.9167 46.4583 15.7292 46.4583ZM34.2708 5.625C32.6042 5.625 30.4167 6.5625 28.0208 8.4375C24.4792 11.25 20.8333 15.625 17.8125 20.8333C11.25 32.1875 10.625 41.9792 14.0625 43.9583C15.8333 45 18.75 44.0625 21.9792 41.5625C25.5208 38.75 29.1667 34.375 32.1875 29.1667C35.2083 23.9583 37.1875 18.6458 37.8125 14.1667C38.3333 10 37.7083 7.08333 35.9375 6.04166C35.4167 5.83333 34.8958 5.625 34.2708 5.625Z" fill="#80DEEA"/>
<path d="M34.375 46.4583C29.1667 46.4583 21.6667 40.1042 16.0417 30.2083C9.27084 18.5417 7.91667 7.1875 13.0208 4.27083C18.125 1.35416 27.2917 8.125 34.0625 19.7917C37.1875 25.2083 39.2708 30.8333 39.8958 35.625C40.625 40.7292 39.5833 44.2708 36.9792 45.8333C36.1458 46.25 35.3125 46.4583 34.375 46.4583ZM14.0625 6.04166C10.625 8.02083 11.25 17.8125 17.8125 29.1667C24.375 40.5208 32.5 45.9375 35.9375 43.9583C37.7083 42.9167 38.3333 40 37.8125 35.8333C37.1875 31.3542 35.2083 26.0417 32.1875 20.8333C25.625 9.47916 17.5 4.0625 14.0625 6.04166Z" fill="#80DEEA"/>
<path d="M25 29.1667C27.3012 29.1667 29.1667 27.3012 29.1667 25C29.1667 22.6988 27.3012 20.8333 25 20.8333C22.6988 20.8333 20.8333 22.6988 20.8333 25C20.8333 27.3012 22.6988 29.1667 25 29.1667Z" fill="#80DEEA"/>
</svg>
