<svg width="67" height="67" viewBox="0 0 67 67" fill="none" xmlns="http://www.w3.org/2000/svg">
<path d="M58.625 8.375H8.375V58.625H58.625V8.375Z" fill="#1976D2"/>
<path d="M38.3713 30.7083H19.8584V35.2643H26.4984V55.8333H31.7593V35.2643H38.3713V30.7083Z" fill="white"/>
<path d="M54.7082 36.4089C54.7082 36.4089 52.2138 34.7451 49.3942 34.7451C46.5746 34.7451 45.5599 36.0851 45.5599 37.5172C45.5599 41.2134 55.8625 40.8435 55.8625 48.2819C55.8625 59.7403 40.1538 54.658 40.1538 54.658V49.1612C40.1538 49.1612 43.1576 51.4253 46.7603 51.4253C50.3629 51.4253 50.2261 49.0691 50.2261 48.7453C50.2261 45.3269 40.0156 45.3269 40.0156 37.7489C40.0156 27.4463 54.8924 31.5109 54.8924 31.5109L54.7082 36.4089Z" fill="white"/>
</svg>
