<svg width="48" height="47" viewBox="0 0 48 47" fill="none" xmlns="http://www.w3.org/2000/svg">
<g clip-path="url(#clip0_54_444)">
<path d="M44.0594 0.135696H3.18985C2.51239 0.135696 1.86268 0.404814 1.38365 0.883847C0.904616 1.36288 0.635498 2.01259 0.635498 2.69004V43.5596C0.635498 44.2371 0.904616 44.8868 1.38365 45.3658C1.86268 45.8448 2.51239 46.114 3.18985 46.114H44.0594C44.7369 46.114 45.3866 45.8448 45.8656 45.3658C46.3446 44.8868 46.6138 44.2371 46.6138 43.5596V2.69004C46.6138 2.01259 46.3446 1.36288 45.8656 0.883847C45.3866 0.404814 44.7369 0.135696 44.0594 0.135696ZM14.2732 39.3117H7.44794V17.3699H14.2732V39.3117ZM10.8606 14.3736C9.81185 14.3736 8.8061 13.957 8.06456 13.2155C7.32302 12.474 6.90642 11.4682 6.90642 10.4195C6.90642 9.3708 7.32302 8.36505 8.06456 7.62351C8.8061 6.88197 9.81185 6.46537 10.8606 6.46537C11.9093 6.46537 12.915 6.88197 13.6565 7.62351C14.3981 8.36505 14.8147 9.3708 14.8147 10.4195C14.8147 11.4682 14.3981 12.474 13.6565 13.2155C12.915 13.957 11.9093 14.3736 10.8606 14.3736ZM39.8141 39.3117H32.9965V28.6422C32.9965 26.0981 32.9506 22.826 29.4511 22.826C25.9006 22.826 25.3616 25.6 25.3616 28.4634V39.3143H18.5491V17.3724H25.0883V20.3712H25.1828C26.0896 18.6471 28.317 16.8284 31.63 16.8284C38.5369 16.8284 39.8115 21.37 39.8115 27.2808V39.3117H39.8141Z" fill="white"/>
</g>
<defs>
<clipPath id="clip0_54_444">
<rect width="47" height="47" fill="white" transform="translate(0.5)"/>
</clipPath>
</defs>
</svg>
